<svg viewBox="0 0 97 97" fill="none" xmlns="http://www.w3.org/2000/svg">
<g filter="url(#filter0_d_27_3181)">
<path d="M92.6381 58.507C86.5604 82.882 61.8697 97.7162 37.4891 91.6378C13.1184 85.5608 -1.71763 60.8716 4.36295 36.498C10.4378 12.1202 35.1285 -2.71547 59.502 3.36157C83.8813 9.4386 98.7158 34.1306 92.6381 58.507Z" fill="#F7931A"/>
<path d="M68.5631 41.0178C69.4689 34.9635 64.8587 31.7089 58.5549 29.5377L60.5997 21.3364L55.607 20.0923L53.6162 28.0774C52.3037 27.7504 50.9555 27.4419 49.616 27.1362L51.6211 19.0984L46.6312 17.8542L44.5849 26.0527C43.4985 25.8053 42.4319 25.5608 41.3967 25.3034L41.4024 25.2778L34.517 23.5587L33.1888 28.8907C33.1888 28.8907 36.8932 29.7396 36.8149 29.7922C38.8371 30.2969 39.2025 31.6349 39.1414 32.6956L36.8121 42.0387C36.9514 42.0742 37.1321 42.1254 37.3311 42.205C37.1648 42.1638 36.987 42.1183 36.8036 42.0742L33.5386 55.1625C33.2911 55.7767 32.6641 56.6981 31.2506 56.3483C31.3003 56.4208 27.6216 55.4426 27.6216 55.4426L25.1429 61.157L31.6402 62.7765C32.8489 63.0794 34.0334 63.3964 35.1995 63.695L33.1333 71.9902L38.1204 73.2343L40.1667 65.0273C41.529 65.397 42.8514 65.7383 44.1455 66.0596L42.1063 74.2282L47.099 75.4723L49.1652 67.1928C57.6789 68.8038 64.0809 68.154 66.7756 60.4546C68.947 54.2553 66.6675 50.6793 62.1881 48.3475C65.4503 47.5953 67.9075 45.4497 68.5631 41.0178ZM57.1556 57.0123C55.6127 63.2116 45.1736 59.8603 41.7892 59.02L44.5308 48.0304C47.9153 48.875 58.7682 50.5471 57.1556 57.0123ZM58.6999 40.9282C57.2921 46.5673 48.6035 43.7022 45.7851 42.9998L48.2708 33.0326C51.0892 33.735 60.166 35.046 58.6999 40.9282Z" fill="white"/>
</g>
<defs>
<filter id="filter0_d_27_3181" x="0" y="0" width="97" height="97" filterUnits="userSpaceOnUse" color-interpolation-filters="sRGB">
<feFlood flood-opacity="0" result="BackgroundImageFix"/>
<feColorMatrix in="SourceAlpha" type="matrix" values="0 0 0 0 0 0 0 0 0 0 0 0 0 0 0 0 0 0 127 0" result="hardAlpha"/>
<feOffset dy="1"/>
<feGaussianBlur stdDeviation="1.5"/>
<feColorMatrix type="matrix" values="0 0 0 0 0.129412 0 0 0 0 0.105882 0 0 0 0 0.305882 0 0 0 0.15 0"/>
<feBlend mode="normal" in2="BackgroundImageFix" result="effect1_dropShadow_27_3181"/>
<feBlend mode="normal" in="SourceGraphic" in2="effect1_dropShadow_27_3181" result="shape"/>
</filter>
</defs>
</svg>
