<svg viewBox="0 0 98 98" fill="none" xmlns="http://www.w3.org/2000/svg">
<g filter="url(#filter0_d_32_3236)">
<circle cx="49" cy="48.4756" r="45.5" fill="black"/>
<g clip-path="url(#clip0_32_3236)">
<path d="M71.5158 60.5784L64.0046 68.513C63.8413 68.6854 63.6437 68.8228 63.4242 68.9167C63.2047 69.0106 62.9678 69.0591 62.7285 69.0589H27.122C26.9521 69.0589 26.7859 69.01 26.6438 68.9183C26.5017 68.8265 26.39 68.6959 26.3223 68.5423C26.2545 68.3889 26.2338 68.2193 26.2626 68.0543C26.2914 67.8894 26.3685 67.7364 26.4844 67.614L34.0013 59.6794C34.1641 59.5075 34.361 59.3704 34.5798 59.2765C34.7987 59.1826 35.0347 59.1339 35.2735 59.1335H70.878C71.0479 59.1335 71.2141 59.1824 71.3563 59.2742C71.4982 59.366 71.6099 59.4966 71.6779 59.6501C71.7455 59.8036 71.7662 59.9732 71.7374 60.1381C71.7086 60.303 71.6315 60.4561 71.5158 60.5784ZM64.0046 44.6004C63.8413 44.4281 63.6437 44.2907 63.4242 44.1967C63.2047 44.1029 62.9678 44.0544 62.7285 44.0546H27.122C26.9521 44.0546 26.7859 44.1034 26.6438 44.1952C26.5017 44.287 26.39 44.4176 26.3223 44.5711C26.2545 44.7246 26.2338 44.8942 26.2626 45.0592C26.2914 45.224 26.3685 45.3771 26.4844 45.4995L34.0013 53.4341C34.1641 53.606 34.361 53.7431 34.5798 53.837C34.7987 53.9309 35.0347 53.9796 35.2735 53.9799H70.878C71.0479 53.9799 71.2141 53.9311 71.3563 53.8393C71.4982 53.7475 71.6099 53.6169 71.6779 53.4634C71.7455 53.3099 71.7662 53.1403 71.7374 52.9753C71.7086 52.8105 71.6315 52.6574 71.5158 52.535L64.0046 44.6004ZM27.122 38.901H62.7285C62.9678 38.9011 63.2047 38.8527 63.4242 38.7588C63.6437 38.6649 63.8413 38.5274 64.0046 38.3551L71.5158 30.4205C71.6315 30.2981 71.7086 30.1451 71.7374 29.9802C71.7662 29.8152 71.7455 29.6456 71.6779 29.4922C71.6099 29.3387 71.4982 29.208 71.3563 29.1163C71.2141 29.0245 71.0479 28.9756 70.878 28.9756H35.2735C35.0347 28.976 34.7987 29.0246 34.5798 29.1185C34.361 29.2124 34.1641 29.3496 34.0013 29.5215L26.4864 37.4561C26.3706 37.5783 26.2935 37.7312 26.2646 37.8959C26.2358 38.0607 26.2563 38.2301 26.3238 38.3836C26.3913 38.537 26.5028 38.6676 26.6445 38.7595C26.7863 38.8514 26.9523 38.9006 27.122 38.901Z" fill="url(#paint0_linear_32_3236)"/>
</g>
</g>
<defs>
<filter id="filter0_d_32_3236" x="0.5" y="0.975586" width="97" height="97" filterUnits="userSpaceOnUse" color-interpolation-filters="sRGB">
<feFlood flood-opacity="0" result="BackgroundImageFix"/>
<feColorMatrix in="SourceAlpha" type="matrix" values="0 0 0 0 0 0 0 0 0 0 0 0 0 0 0 0 0 0 127 0" result="hardAlpha"/>
<feOffset dy="1"/>
<feGaussianBlur stdDeviation="1.5"/>
<feColorMatrix type="matrix" values="0 0 0 0 0.129412 0 0 0 0 0.105882 0 0 0 0 0.305882 0 0 0 0.15 0"/>
<feBlend mode="normal" in2="BackgroundImageFix" result="effect1_dropShadow_32_3236"/>
<feBlend mode="normal" in="SourceGraphic" in2="effect1_dropShadow_32_3236" result="shape"/>
</filter>
<linearGradient id="paint0_linear_32_3236" x1="30.0907" y1="70.0142" x2="66.7996" y2="28.0024" gradientUnits="userSpaceOnUse">
<stop offset="0.08" stop-color="#9945FF"/>
<stop offset="0.3" stop-color="#8752F3"/>
<stop offset="0.5" stop-color="#5497D5"/>
<stop offset="0.6" stop-color="#43B4CA"/>
<stop offset="0.72" stop-color="#28E0B9"/>
<stop offset="0.97" stop-color="#19FB9B"/>
</linearGradient>
<clipPath id="clip0_32_3236">
<rect width="45.5" height="40.0833" fill="white" transform="translate(26.25 28.9756)"/>
</clipPath>
</defs>
</svg>
