<svg viewBox="0 0 62 62" fill="none" xmlns="http://www.w3.org/2000/svg">
<path fill-rule="evenodd" clip-rule="evenodd" d="M34.0995 18.5995C37.3881 18.5995 40.5418 19.9069 42.8672 22.2323C45.1926 24.5577 46.5 27.7113 46.5 31C46.4999 34.2885 45.1925 37.4415 42.8672 39.7668C40.5417 42.0923 37.3881 43.3996 34.0995 43.3996C30.8109 43.3996 27.658 42.0922 25.3326 39.7668C23.0073 37.4414 21.6999 34.2886 21.6998 31C21.6998 27.7113 23.0072 24.5577 25.3326 22.2323C27.658 19.907 30.811 18.5996 34.0995 18.5995ZM34.0995 24.8002C32.4552 24.8003 30.8787 25.4539 29.716 26.6166C28.5535 27.7793 27.8996 29.3558 27.8996 31C27.8997 32.6442 28.5534 34.2207 29.716 35.3834C30.8787 36.5461 32.4552 37.1997 34.0995 37.1998C35.7438 37.1998 37.3211 36.5461 38.4838 35.3834C39.6463 34.2208 40.3001 32.6442 40.3002 31C40.3002 29.3558 39.6463 27.7793 38.4838 26.6166C37.3211 25.4539 35.7438 24.8002 34.0995 24.8002Z" fill="white"/>
<path fill-rule="evenodd" clip-rule="evenodd" d="M52.6998 0C55.1663 0 57.5313 0.980531 59.2754 2.72461C61.0194 4.46868 62 6.83372 62 9.30018V52.6998C62 55.1663 61.0194 57.5313 59.2754 59.2754C57.5313 61.0194 55.1663 62 52.6998 62H15.5C13.0335 62 10.6685 61.0194 8.92443 59.2754C7.18038 57.5313 6.19986 55.1663 6.19982 52.6998V49.5995H3.10036C1.38838 49.5995 0.000152129 48.2119 0 46.5C0 44.7879 1.38828 43.3996 3.10036 43.3996H6.19982V34.0995H3.10036C1.38835 34.0995 0.000103615 32.712 0 31C0 29.2879 1.38828 27.8996 3.10036 27.8996H6.19982V18.5995H3.10036C1.38832 18.5995 5.5098e-05 17.212 0 15.5C0 13.7879 1.38828 12.3996 3.10036 12.3996H6.19982V9.30018C6.19982 6.83376 7.18046 4.46867 8.92443 2.72461C10.6685 0.980558 13.0335 3.00728e-05 15.5 0H52.6998ZM15.5 6.19982C14.678 6.19985 13.89 6.52686 13.3087 7.10803C12.7274 7.68938 12.4005 8.47801 12.4005 9.30018V52.6998L12.4157 53.0052C12.486 53.7151 12.7999 54.3822 13.3087 54.8911C13.8901 55.4724 14.6779 55.7993 15.5 55.7993H19.2557C20.0906 53.0021 21.4451 50.6865 23.6916 49.0581C26.4835 47.0345 30.0834 46.5 34.0995 46.5C38.0819 46.5 41.6796 46.9849 44.4743 48.9548C46.7833 50.5826 48.1549 52.9354 48.9887 55.7993H52.6998C53.522 55.7993 54.3106 55.4724 54.892 54.8911C55.4731 54.3098 55.8001 53.5218 55.8002 52.6998V9.30018C55.8002 8.47805 55.4733 7.68938 54.892 7.10803C54.3106 6.52667 53.522 6.19982 52.6998 6.19982H15.5ZM34.0995 52.6998C30.4286 52.6999 28.4873 53.2392 27.3307 54.0773C26.8154 54.4508 26.3284 54.9802 25.8954 55.7993H42.373C41.9295 54.9316 41.4287 54.3943 40.9021 54.0229C39.7483 53.2096 37.8044 52.6998 34.0995 52.6998Z" fill="white"/>
</svg>
