<svg viewBox="0 0 27 21" fill="none" xmlns="http://www.w3.org/2000/svg">
<path d="M22.4626 2.30491C25.4088 6.66731 26.8638 11.588 26.3199 17.2528C26.3176 17.2768 26.3052 17.2988 26.2856 17.3132C24.0545 18.9631 21.8929 19.9644 19.7616 20.6284C19.745 20.6335 19.7273 20.6332 19.7108 20.6276C19.6944 20.622 19.6801 20.6114 19.67 20.5972C19.1776 19.9072 18.7302 19.1798 18.3382 18.416C18.3157 18.371 18.3363 18.3168 18.3826 18.2991C19.0931 18.0295 19.7688 17.7063 20.4187 17.3237C20.4699 17.2935 20.4731 17.2196 20.4258 17.1842C20.2879 17.0811 20.1513 16.9727 20.0205 16.8643C19.9961 16.8443 19.9631 16.8403 19.9354 16.8538C15.7162 18.816 11.0942 18.816 6.82511 16.8538C6.79739 16.8413 6.76446 16.8456 6.74065 16.8653C6.61022 16.9737 6.47326 17.0811 6.33663 17.1842C6.28935 17.2196 6.29326 17.2935 6.34478 17.3237C6.99467 17.6991 7.67032 18.0295 8.37989 18.3004C8.42587 18.3181 8.44771 18.371 8.42489 18.416C8.04141 19.1808 7.59402 19.9082 7.0925 20.5982C7.07065 20.6261 7.03478 20.6389 7.00087 20.6284C4.87968 19.9644 2.71805 18.9631 0.486966 17.3132C0.468379 17.2988 0.455009 17.2758 0.453053 17.2518C-0.00151193 12.3518 0.924899 7.39044 4.30674 2.30392C4.31489 2.29046 4.32729 2.27995 4.34163 2.27371C6.00565 1.50461 7.78837 0.938783 9.65162 0.615642C9.68554 0.610388 9.71945 0.626151 9.73706 0.656363C9.96728 1.06686 10.2304 1.59327 10.4085 2.02347C12.3725 1.72135 14.3672 1.72135 16.3723 2.02347C16.5503 1.60247 16.8043 1.06686 17.0336 0.656363C17.0417 0.641375 17.0544 0.629368 17.0697 0.622055C17.0851 0.614742 17.1023 0.612497 17.119 0.615642C18.9832 0.939768 20.766 1.50559 22.4287 2.27371C22.4433 2.27995 22.4554 2.29046 22.4626 2.30491ZM11.4069 11.6215C11.4275 10.1729 10.3788 8.97429 9.06239 8.97429C7.75674 8.97429 6.71815 10.1624 6.71815 11.6215C6.71815 13.0802 7.77728 14.2683 9.06239 14.2683C10.3684 14.2683 11.4069 13.0802 11.4069 11.6215ZM20.075 11.6215C20.0955 10.1729 19.0468 8.97429 17.7307 8.97429C16.4248 8.97429 15.3862 10.1624 15.3862 11.6215C15.3862 13.0802 16.4453 14.2683 17.7307 14.2683C19.0468 14.2683 20.075 13.0802 20.075 11.6215Z" fill="none"/>
</svg>
