<svg viewBox="0 0 53 53" fill="none" xmlns="http://www.w3.org/2000/svg">
<g clip-path="url(#clip0_4008_5319)">
<path d="M20.2679 1.27206C23.9258 -0.132754 28.99 -0.130016 32.651 1.2643C35.6533 2.4078 38.8208 3.63651 41.7733 5.05297C44.7374 6.47497 47.3183 8.00525 49.7129 9.45239C51.3227 10.4251 52.8138 12.0352 52.8106 14.2426C52.8073 16.4513 51.3095 18.0585 49.6922 19.0276C47.2956 20.4637 44.7162 21.9738 41.7733 23.3856C38.8408 24.7925 35.7108 26.022 32.7312 27.1665C29.0734 28.5715 24.0093 28.5686 20.3482 27.1743C17.3459 26.0308 14.1784 24.8021 11.2258 23.3856C8.26174 21.9635 5.68096 20.4333 3.28619 18.9862C1.67624 18.0133 0.185069 16.4037 0.188482 14.196C0.192149 11.9876 1.68977 10.3825 3.30689 9.41357C5.70395 7.97725 8.28275 6.46491 11.2258 5.05297C14.1586 3.64603 17.2883 2.41655 20.2679 1.27206ZM30.7644 6.21752C28.3156 5.28491 24.5994 5.28599 22.1674 6.22011C19.1884 7.36435 16.2389 8.52783 13.5187 9.83281C10.8088 11.1329 8.40311 12.5381 6.02935 13.9605C5.87878 14.0508 5.76422 14.1336 5.6774 14.2038C5.76378 14.2742 5.87661 14.3588 6.02676 14.4496C8.4044 15.8864 10.8007 17.3044 13.5187 18.6083C16.2483 19.9178 19.2258 21.0776 22.2347 22.2236C24.6835 23.1558 28.4001 23.1524 30.8317 22.2185C33.8104 21.0743 36.7608 19.9132 39.4804 18.6083C42.1902 17.3085 44.5938 15.9028 46.9672 14.4807C47.1197 14.3893 47.2344 14.303 47.3217 14.2322C47.2355 14.1621 47.1217 14.0792 46.9724 13.989C44.5951 12.5523 42.1982 11.1367 39.4804 9.83281C36.7507 8.52325 33.7735 7.36361 30.7644 6.21752Z" fill="white"/>
<path d="M0.513374 28.1823C1.22641 26.9048 2.84037 26.4476 4.11831 27.1601C6.69522 28.5969 9.30261 30.019 12.2624 31.3292C15.2345 32.6448 18.4732 33.8088 21.7341 34.9548C24.4775 35.9184 28.6119 35.9154 31.3377 34.9497C34.5665 33.8053 37.7758 32.6399 40.737 31.3292C43.6876 30.0231 46.305 28.6114 48.8785 27.1886C50.159 26.4813 51.7701 26.9461 52.4782 28.2263C53.1863 29.507 52.7236 31.1204 51.4431 31.8287C48.846 33.2646 46.0585 34.7704 42.8823 36.1763C39.7174 37.5772 36.3364 38.8026 33.1079 39.9469C29.2342 41.3191 23.8548 41.317 19.9769 39.9546C16.7233 38.8112 13.3029 37.5865 10.117 36.1763C6.91893 34.7606 4.13069 33.2342 1.53559 31.7873C0.258106 31.0742 -0.199166 29.4603 0.513374 28.1823Z" fill="white"/>
<path d="M0.513374 40.0124C1.22641 38.7349 2.84037 38.2776 4.11831 38.9902C6.69534 40.4271 9.30273 41.8493 12.2624 43.1593C15.2345 44.4751 18.4731 45.6389 21.7341 46.7849C24.4775 47.7484 28.6119 47.7454 31.3377 46.7797C34.5664 45.6355 37.7758 44.47 40.737 43.1593C43.6877 41.8531 46.3052 40.4415 48.8785 39.0186C50.159 38.3113 51.7702 38.7761 52.4782 40.0564C53.1864 41.3371 52.7237 42.9505 51.4431 43.6587C48.8458 45.0948 46.0584 46.6005 42.8823 48.0064C39.7174 49.4073 36.3365 50.6327 33.1079 51.7769C29.2342 53.1492 23.8548 53.147 19.9769 51.7847C16.7234 50.6413 13.3029 49.4168 10.117 48.0064C6.91881 46.5908 4.13057 45.0642 1.53559 43.6173C0.258106 42.9043 -0.199166 41.2903 0.513374 40.0124Z" fill="white"/>
</g>
<defs>
<clipPath id="clip0_4008_5319">
<rect width="53" height="53" fill="white"/>
</clipPath>
</defs>
</svg>
