<svg viewBox="0 0 67 66" fill="none" xmlns="http://www.w3.org/2000/svg">
<path d="M20.1327 23.7323C21.9829 23.7323 23.4827 25.2182 23.4827 27.0512C23.4827 28.8842 21.9829 30.3701 20.1327 30.3701H20.1C18.2499 30.3701 16.75 28.8842 16.75 27.0512C16.75 25.2182 18.2499 23.7323 20.1 23.7323H20.1327ZM33.5327 23.7323C35.3829 23.7323 36.8827 25.2182 36.8827 27.0512C36.8827 28.8842 35.3829 30.3701 33.5327 30.3701H33.5C31.6498 30.3701 30.15 28.8842 30.15 27.0512C30.15 25.2182 31.6498 23.7323 33.5 23.7323H33.5327ZM46.9327 23.7323C48.7829 23.7323 50.2827 25.2182 50.2827 27.0512C50.2827 28.8842 48.7829 30.3701 46.9327 30.3701H46.9C45.0498 30.3701 43.55 28.8842 43.55 27.0512C43.55 25.2182 45.0498 23.7323 46.9 23.7323H46.9327ZM23.45 57.0412L35.2012 48.5754C36.6537 47.5273 38.406 46.9646 40.2 46.9646H50.25C53.5038 46.9646 55.6073 46.9571 57.1561 46.7507C58.6069 46.5572 59.0627 46.2457 59.3185 45.9923C59.5743 45.7389 59.8887 45.2873 60.0841 43.8499C60.2924 42.3155 60.3 40.2315 60.3 37.0079V17.0945C60.3 13.8709 60.2924 11.7869 60.0841 10.2525C59.8887 8.81515 59.5743 8.36357 59.3185 8.11015C59.0627 7.85673 58.6069 7.54524 57.1561 7.35173C55.6073 7.14531 53.5038 7.13782 50.25 7.13782H16.75C13.4962 7.13782 11.3927 7.14531 9.84391 7.35173C8.39307 7.54524 7.93725 7.85673 7.68146 8.11015C7.42567 8.36357 7.11125 8.81515 6.91593 10.2525C6.70758 11.7869 6.70002 13.8709 6.70002 17.0945V37.0079C6.70002 40.2315 6.70758 42.3155 6.91593 43.8499C7.11125 45.2873 7.42567 45.7389 7.68146 45.9923C7.93725 46.2457 8.39307 46.5572 9.84391 46.7507C11.3927 46.9571 13.4962 46.9646 16.75 46.9646H18.425C19.5908 46.9646 20.7141 47.367 21.6082 48.0925L21.9778 48.4231L22.3115 48.7893C23.0438 49.6751 23.45 50.7879 23.45 51.943V57.0412ZM67 37.0079C67 40.0437 67.0076 42.6549 66.7252 44.7347C66.4296 46.9103 65.7626 48.9943 64.0556 50.6854C62.3486 52.3765 60.2452 53.0374 58.0492 53.3301C55.9499 53.6099 53.3142 53.6024 50.25 53.6024H40.2C39.8178 53.6024 39.4488 53.7245 39.1466 53.9427H39.1433L24.3758 64.5833L24.3693 64.5865C21.2031 66.8591 16.751 64.635 16.75 60.7393V53.6024C13.6858 53.6024 11.0501 53.6099 8.9508 53.3301C6.75478 53.0374 4.65135 52.3765 2.94435 50.6854C1.23736 48.9943 0.570355 46.9103 0.274824 44.7347C-0.00759481 42.6549 1.99351e-05 40.0437 1.99351e-05 37.0079V17.0945C1.99351e-05 14.0587 -0.00759478 11.4476 0.274824 9.3677C0.570355 7.19207 1.23736 5.10817 2.94435 3.41702C4.65135 1.72587 6.75478 1.06506 8.9508 0.772273C11.0501 0.492476 13.6858 0.50002 16.75 0.50002H50.25C53.3142 0.50002 55.9499 0.492476 58.0492 0.772273C60.2452 1.06506 62.3486 1.72587 64.0556 3.41702C65.7626 5.10817 66.4296 7.19207 66.7252 9.3677C67.0076 11.4476 67 14.0587 67 17.0945V37.0079Z" fill="white"/>
</svg>
