<svg viewBox="0 0 54 54" fill="none" xmlns="http://www.w3.org/2000/svg">
<path fill-rule="evenodd" clip-rule="evenodd" d="M25.8806 21.9377C26.7663 21.1114 28.1477 21.1346 29.0051 21.9904L31.8835 24.8688C32.7504 25.736 32.7629 27.1389 31.9121 28.0219L10.9765 49.7507C10.1029 50.6563 8.65407 50.6689 7.7641 49.7792L3.77387 45.7868C2.87452 44.8871 2.89942 43.4212 3.8288 42.5524L25.8806 21.9377ZM8.8869 49.2101C8.89531 49.214 8.9048 49.2153 8.91327 49.2189C8.85379 49.1934 8.79495 49.1651 8.73969 49.1288L8.8869 49.2101ZM10.1657 48.9684C10.0607 49.0773 9.93785 49.1573 9.80756 49.2145C9.8701 49.1871 9.93227 49.1572 9.98993 49.1179L10.1657 48.9684Z" fill="white"/>
<path d="M18.3988 4.23651C23.9468 3.88309 31.7448 5.02799 37.7809 9.91205H41.413C42.9656 9.9124 44.2246 11.1723 44.2255 12.7245V16.2094C49.8118 22.1355 50.8272 30.116 50.2262 35.3366C50.1316 36.1488 49.5349 36.6318 48.8683 36.6835C48.2257 36.7328 47.5512 36.3865 47.2137 35.6992C44.7709 30.7123 40.7551 26.0395 37.7237 23.2341L36.4164 24.5458C35.9776 24.9836 35.2652 24.9855 34.8255 24.5458L29.5675 19.2878C29.128 18.8481 29.1298 18.1357 29.5675 17.697L30.732 16.528C27.9303 13.7053 22.7932 9.82013 16.9947 7.34344C16.2695 7.03314 15.8958 6.35654 15.9401 5.69989C15.9864 5.01947 16.482 4.41355 17.3111 4.3266L18.3988 4.23651Z" fill="white"/>
</svg>
