<svg viewBox="0 0 28 26" fill="none" xmlns="http://www.w3.org/2000/svg">
<path d="M16.5763 25.5V20.8452C16.6794 18.0907 16.8168 15.4756 16.9886 13C17.1947 10.5244 17.7615 8.24059 18.6889 6.14854C19.6164 4.02162 21.2309 2.13877 23.5324 0.5L26.3664 3.79498C25.7137 4.38773 24.8721 5.60809 23.8416 7.45607C22.8111 9.26918 22.2615 11.7796 22.1927 14.9874L27.5 15.6674V25.5H16.5763ZM0.5 25.5V20.8452C0.5 18.1255 0.620229 15.5279 0.860687 13.0523C1.1355 10.5767 1.77099 8.27545 2.76718 6.14854C3.79771 4.02162 5.46374 2.13877 7.76527 0.5L10.5992 3.79498C9.94656 4.38773 9.10496 5.59066 8.07443 7.40377C7.04389 9.21688 6.49428 11.7273 6.42557 14.9351L11.4237 15.6674V25.5H0.5Z" fill="white"/>
</svg>
