<svg viewBox="0 0 60 59" fill="none" xmlns="http://www.w3.org/2000/svg">
<path fill-rule="evenodd" clip-rule="evenodd" d="M58.0001 15.0002C58.0001 13.3433 56.657 12.0001 55.0001 12.0001L11.1098 12.0001L18.9524 5.2779C20.2104 4.19963 20.3561 2.30572 19.2778 1.04774C18.1996 -0.210238 16.3056 -0.355925 15.0477 0.722347L1.04763 12.7224C0.382692 13.2923 4.46404e-06 14.1244 4.50232e-06 15.0001C4.5406e-06 15.8759 0.382692 16.708 1.04763 17.2779L15.0477 29.278C16.3056 30.3562 18.1996 30.2105 19.2778 28.9526C20.3561 27.6946 20.2104 25.8007 18.9524 24.7224L11.1098 18.0002L55.0001 18.0002C56.657 18.0002 58.0001 16.657 58.0001 15.0002Z" fill="white"/>
<path fill-rule="evenodd" clip-rule="evenodd" d="M1.99987 44.0006C1.99987 45.6574 3.34302 47.0006 4.99988 47.0006L48.8902 47.0006L41.0476 53.7228C39.7896 54.8011 39.6439 56.695 40.7222 57.953C41.8005 59.211 43.6944 59.3567 44.9523 58.2784L58.9524 46.2784C59.6173 45.7084 60 44.8764 60 44.0006C60 43.1248 59.6173 42.2928 58.9524 41.7228L44.9523 29.7228C43.6944 28.6445 41.8005 28.7902 40.7222 30.0482C39.6439 31.3062 39.7896 33.2001 41.0476 34.2783L48.8902 41.0006L4.99988 41.0006C3.34302 41.0006 1.99987 42.3437 1.99987 44.0006Z" fill="white"/>
</svg>
