<svg viewBox="0 0 24 20" fill="none" xmlns="http://www.w3.org/2000/svg">
<path d="M2.08294 8.61459C2.08294 8.61459 12.2553 4.33017 15.7832 2.82152C17.1357 2.21811 21.722 0.287033 21.722 0.287033C21.722 0.287033 23.8388 -0.55774 23.6624 1.49394C23.6036 2.33879 23.1332 5.29563 22.6628 8.49391C21.9572 13.0198 21.1928 17.968 21.1928 17.968C21.1928 17.968 21.0752 19.356 20.0756 19.5973C19.0761 19.8387 17.4296 18.7525 17.1357 18.5111C16.9004 18.3301 12.7257 15.6146 11.1969 14.287C10.7853 13.9249 10.3149 13.2008 11.2556 12.356C13.3725 10.3646 15.9008 7.8905 17.4296 6.32155C18.1352 5.59738 18.8408 3.90774 15.9008 5.95942C11.7261 8.91634 7.61011 11.6922 7.61011 11.6922C7.61011 11.6922 6.66929 12.2956 4.90532 11.7525C3.14127 11.2095 1.08329 10.4853 1.08329 10.4853C1.08329 10.4853 -0.327824 9.58013 2.08294 8.61459Z" fill="none"/>
</svg>
