<svg viewBox="0 0 32 64" fill="none" xmlns="http://www.w3.org/2000/svg">
<path d="M19.7536 56.436L19.1121 56.546V63.6041C19.114 63.656 19.1056 63.7078 19.0872 63.7562C19.0688 63.8047 19.0408 63.8488 19.005 63.8858C18.9693 63.9229 18.9264 63.9521 18.8791 63.9718C18.8318 63.9914 18.7811 64.001 18.73 63.9999H13.8718C13.7705 63.9962 13.6743 63.9531 13.6033 63.8794C13.5322 63.8058 13.4916 63.7073 13.4898 63.6041V56.5167L12.8339 56.436C8.02967 55.8154 3.55941 53.6057 0.111754 50.1475C0.0494746 50.0748 0.0111223 49.9841 0.00207386 49.8882C-0.0069746 49.7922 0.0137345 49.6958 0.0612977 49.6124L3.78063 44.6578C3.86197 44.5884 3.963 44.5473 4.06895 44.5405C4.09864 44.5379 4.12851 44.5425 4.15609 44.554C4.18367 44.5655 4.20816 44.5835 4.22753 44.6065L4.3789 44.7457C5.76283 45.9331 10.5273 49.8396 16.3226 49.8396C20.2221 49.8396 24.4244 47.7068 24.4244 43.0307C24.4244 38.9995 19.9987 37.1672 14.8377 35.1003C8.58117 32.557 0.789307 29.4347 0.789307 20.7275C0.789307 14.3656 5.64751 9.1471 12.8699 7.73987L13.4898 7.61527V0.395861C13.4916 0.292713 13.5322 0.194184 13.6033 0.120557C13.6743 0.0469311 13.7705 0.00381164 13.8718 7.60741e-05H18.7373C18.7883 -0.000961438 18.8391 0.00862296 18.8863 0.028241C18.9336 0.047859 18.9765 0.0770967 19.0122 0.11416C19.048 0.151222 19.076 0.195328 19.0944 0.24377C19.1128 0.292212 19.1213 0.343968 19.1193 0.395861V7.52731L19.804 7.60061C26.594 8.38485 30.2773 11.9982 30.6521 12.3647C30.7169 12.4245 30.7599 12.5048 30.7743 12.5926C30.7887 12.6803 30.7736 12.7705 30.7314 12.8484L27.8121 18.1915C27.7865 18.2512 27.7441 18.3019 27.6902 18.3371C27.6364 18.3723 27.5734 18.3905 27.5094 18.3894C27.4169 18.4139 27.3186 18.4007 27.2355 18.3528C27.1923 18.3088 22.6368 14.1677 16.9064 14.1677C11.8969 14.1677 8.40818 16.8063 8.40818 20.5809C8.40818 24.9785 13.0141 26.7962 18.3913 28.9143C24.7704 31.4137 32 34.2501 32 42.5616C31.9928 49.6197 27.0769 55.1901 19.7536 56.436Z" fill="white"/>
</svg>
