<svg viewBox="0 0 57 57" fill="none" xmlns="http://www.w3.org/2000/svg">
<path d="M28.501 0.000976562C36.0594 0.00105762 43.3087 3.00311 48.6533 8.34766C53.998 13.6924 57 20.9424 57 28.501C57 32.2435 56.2642 35.9506 54.832 39.4082C53.3998 42.8657 51.2996 46.007 48.6533 48.6533C46.007 51.2996 42.8657 53.3998 39.4082 54.832C35.9506 56.2642 32.2435 57 28.501 57C24.7584 57 21.0514 56.2642 17.5938 54.832C14.1361 53.3998 10.994 51.2997 8.34766 48.6533C5.70143 46.007 3.60115 42.8657 2.16895 39.4082C0.736741 35.9506 0.00101664 32.2435 0.000976562 28.501C0.000976675 20.9424 3.00293 13.6924 8.34766 8.34766C13.6924 3.00293 20.9424 0.000976562 28.501 0.000976562ZM28.5 42.751C23.6829 42.751 20.5187 43.1799 18.3867 44.0586C16.8545 44.6902 15.8116 45.5701 15.0576 46.9141C16.5166 47.9783 18.0993 48.8692 19.7754 49.5635C22.5416 50.7093 25.5069 51.3008 28.501 51.3008C31.4949 51.3007 34.4595 50.7092 37.2256 49.5635C38.9222 48.8607 40.5234 47.9566 41.9971 46.875C41.2525 45.5159 40.2209 44.648 38.6982 44.0283C36.5617 43.1592 33.3774 42.751 28.5 42.751ZM28.501 5.70117C22.4541 5.70117 16.6537 8.10215 12.3779 12.3779C8.10215 16.6537 5.70117 22.4541 5.70117 28.501C5.70121 31.4949 6.29183 34.4596 7.4375 37.2256C8.29128 39.2866 9.44063 41.2082 10.8467 42.9297C12.1637 41.1 13.9321 39.7274 16.2129 38.7871C19.4237 37.4637 23.5256 37.0508 28.5 37.0508C33.5001 37.0508 37.6246 37.4387 40.8438 38.748C43.1251 39.6761 44.8899 41.0408 46.2012 42.8711C47.5857 41.1645 48.7193 39.2635 49.5635 37.2256C50.7092 34.4595 51.3007 31.4949 51.3008 28.501C51.3008 22.4543 48.8996 16.6537 44.624 12.3779C40.3483 8.10222 34.5477 5.70125 28.501 5.70117ZM28.5 11.4004C31.5233 11.4004 34.4227 12.6025 36.5605 14.7402C38.6984 16.8781 39.9004 19.7773 39.9004 22.8008L39.8867 23.3652C39.747 26.1828 38.5647 28.856 36.5605 30.8604C34.4227 32.9982 31.5234 34.2002 28.5 34.2002C25.4767 34.2001 22.5782 32.9981 20.4404 30.8604C18.3027 28.7225 17.1006 25.8241 17.1006 22.8008C17.1006 19.7774 18.3026 16.8781 20.4404 14.7402C22.5782 12.6026 25.4769 11.4005 28.5 11.4004ZM28.5 17.1006C26.9886 17.1007 25.5395 17.7019 24.4707 18.7705C23.4018 19.8394 22.8008 21.2891 22.8008 22.8008C22.8008 24.3124 23.4018 25.7621 24.4707 26.8311C25.5395 27.8997 26.9886 28.5008 28.5 28.501C30.0116 28.501 31.4614 27.8998 32.5303 26.8311C33.5992 25.7621 34.2002 24.3125 34.2002 22.8008C34.2002 21.2891 33.5992 19.8395 32.5303 18.7705C31.4613 17.7017 30.0116 17.1006 28.5 17.1006Z" fill="white"/>
</svg>
