<svg viewBox="0 0 81 81" fill="none" xmlns="http://www.w3.org/2000/svg">
<mask id="path-1-outside-1_4151_1702" maskUnits="userSpaceOnUse" x="3.67627" y="6.96118" width="73" height="70" fill="black">
<rect fill="white" x="3.67627" y="6.96118" width="73" height="70"/>
<path fill-rule="evenodd" clip-rule="evenodd" d="M70.2547 39.6286C70.1869 39.6279 70.0982 39.6278 69.954 39.6278H61.2788C56.5342 39.6278 53.0096 43.157 53.0096 47.1278C53.0096 51.0987 56.5342 54.6278 61.2788 54.6278H69.954C70.0982 54.6278 70.1869 54.6278 70.2547 54.6271C70.3186 54.6264 70.3361 54.6253 70.3361 54.6253C71.0231 54.5835 71.3187 54.1199 71.3411 53.8409C71.3411 53.8409 71.3418 53.82 71.3422 53.7898C71.3429 53.7306 71.3429 53.6518 71.3429 53.5167V40.739C71.3429 40.6642 71.3429 40.6067 71.3428 40.5602C71.3427 40.5227 71.3425 40.4923 71.3422 40.4659C71.3418 40.4357 71.3411 40.4148 71.3411 40.4148C71.3187 40.1359 71.0231 39.6722 70.3361 39.6304C70.3361 39.6304 70.3196 39.6293 70.2547 39.6286ZM70.0093 34.6278C70.2305 34.6278 70.4438 34.6277 70.6398 34.6396C73.5444 34.8164 76.1131 37.0072 76.329 40.0671C76.3432 40.2678 76.3431 40.4841 76.343 40.6845C76.3429 40.7028 76.3429 40.721 76.3429 40.739V53.5167C76.3429 53.5347 76.3429 53.5529 76.343 53.5711C76.3431 53.7716 76.3432 53.9879 76.329 54.1885C76.1131 57.2485 73.5444 59.4393 70.6398 59.6161C70.4438 59.628 70.2305 59.6279 70.0092 59.6279C69.9909 59.6279 69.9725 59.6278 69.954 59.6278H61.2788C54.1281 59.6278 48.0096 54.2027 48.0096 47.1278C48.0096 40.053 54.1281 34.6278 61.2788 34.6278H69.954C69.9725 34.6278 69.9909 34.6278 70.0093 34.6278Z"/>
<path d="M63.8429 47.1278C63.8429 48.9688 62.3506 50.4612 60.5096 50.4612C58.6687 50.4612 57.1763 48.9688 57.1763 47.1278C57.1763 45.2869 58.6687 43.7945 60.5096 43.7945C62.3506 43.7945 63.8429 45.2869 63.8429 47.1278Z"/>
<path fill-rule="evenodd" clip-rule="evenodd" d="M70.0093 34.6278C70.2305 34.6278 70.4438 34.6277 70.6398 34.6396C71.3913 34.6853 72.1203 34.8659 72.7919 35.1614C72.4353 29.8066 71.4534 25.6799 68.3721 22.5987C65.8776 20.1041 62.7144 18.9971 58.8063 18.4716L58.6654 18.453C58.6304 18.4271 58.5945 18.4019 58.5578 18.3776L46.1062 10.1214C41.7623 7.24112 35.9235 7.24112 31.5797 10.1214L19.1281 18.3776C19.0914 18.4019 19.0555 18.4271 19.0205 18.453L18.8795 18.4716C14.9715 18.9971 11.8083 20.1041 9.31375 22.5987C6.8192 25.0932 5.71215 28.2564 5.18672 32.1644C4.67618 35.9618 4.67622 40.8139 4.67627 46.9398V47.3159C4.67622 53.4418 4.67618 58.2939 5.18672 62.0913C5.71215 65.9993 6.8192 69.1625 9.31375 71.657C11.8083 74.1516 14.9715 75.2586 18.8795 75.7841C22.6769 76.2946 27.529 76.2946 33.6549 76.2945H44.031C50.1568 76.2946 55.009 76.2946 58.8063 75.7841C62.7144 75.2586 65.8776 74.1516 68.3721 71.657C71.4534 68.5758 72.4353 64.4491 72.7919 59.0943C72.1203 59.3898 71.3913 59.5704 70.6398 59.6161C70.4438 59.628 70.2305 59.6279 70.0092 59.6279L69.954 59.6278H67.736C67.3566 64.0994 66.4984 66.4597 64.8366 68.1215C63.4259 69.5322 61.4937 70.3778 58.1401 70.8287C54.7146 71.2892 50.199 71.2945 43.8429 71.2945H33.8429C27.4869 71.2945 22.9713 71.2892 19.5458 70.8287C16.1921 70.3778 14.26 69.5322 12.8493 68.1215C11.4386 66.7108 10.593 64.7787 10.1421 61.425C9.68158 57.9995 9.67627 53.4839 9.67627 47.1279C9.67627 40.7718 9.68158 36.2562 10.1421 32.8307C10.593 29.477 11.4386 27.5449 12.8493 26.1342C14.26 24.7235 16.1921 23.8779 19.5458 23.427C22.9713 22.9665 27.4869 22.9612 33.8429 22.9612H43.8429C50.199 22.9612 54.7146 22.9665 58.1401 23.427C61.4937 23.8779 63.4259 24.7235 64.8366 26.1342C66.4984 27.796 67.3566 30.1563 67.736 34.6278H69.954L70.0093 34.6278ZM33.6549 17.9612H44.031C45.7527 17.9612 47.3737 17.9612 48.899 17.9725L43.3431 14.2885C40.674 12.5187 37.0119 12.5187 34.3428 14.2885L28.7869 17.9725C30.3122 17.9612 31.9332 17.9612 33.6549 17.9612Z"/>
<path d="M20.5096 31.2945C19.1289 31.2945 18.0096 32.4138 18.0096 33.7945C18.0096 35.1752 19.1289 36.2945 20.5096 36.2945H33.8429C35.2236 36.2945 36.3429 35.1752 36.3429 33.7945C36.3429 32.4138 35.2236 31.2945 33.8429 31.2945H20.5096Z"/>
<path fill-rule="evenodd" clip-rule="evenodd" d="M63.8429 47.1278C63.8429 48.9688 62.3506 50.4612 60.5096 50.4612C58.6687 50.4612 57.1763 48.9688 57.1763 47.1278C57.1763 45.2869 58.6687 43.7945 60.5096 43.7945C62.3506 43.7945 63.8429 45.2869 63.8429 47.1278Z"/>
</mask>
<path fill-rule="evenodd" clip-rule="evenodd" d="M70.2547 39.6286C70.1869 39.6279 70.0982 39.6278 69.954 39.6278H61.2788C56.5342 39.6278 53.0096 43.157 53.0096 47.1278C53.0096 51.0987 56.5342 54.6278 61.2788 54.6278H69.954C70.0982 54.6278 70.1869 54.6278 70.2547 54.6271C70.3186 54.6264 70.3361 54.6253 70.3361 54.6253C71.0231 54.5835 71.3187 54.1199 71.3411 53.8409C71.3411 53.8409 71.3418 53.82 71.3422 53.7898C71.3429 53.7306 71.3429 53.6518 71.3429 53.5167V40.739C71.3429 40.6642 71.3429 40.6067 71.3428 40.5602C71.3427 40.5227 71.3425 40.4923 71.3422 40.4659C71.3418 40.4357 71.3411 40.4148 71.3411 40.4148C71.3187 40.1359 71.0231 39.6722 70.3361 39.6304C70.3361 39.6304 70.3196 39.6293 70.2547 39.6286ZM70.0093 34.6278C70.2305 34.6278 70.4438 34.6277 70.6398 34.6396C73.5444 34.8164 76.1131 37.0072 76.329 40.0671C76.3432 40.2678 76.3431 40.4841 76.343 40.6845C76.3429 40.7028 76.3429 40.721 76.3429 40.739V53.5167C76.3429 53.5347 76.3429 53.5529 76.343 53.5711C76.3431 53.7716 76.3432 53.9879 76.329 54.1885C76.1131 57.2485 73.5444 59.4393 70.6398 59.6161C70.4438 59.628 70.2305 59.6279 70.0092 59.6279C69.9909 59.6279 69.9725 59.6278 69.954 59.6278H61.2788C54.1281 59.6278 48.0096 54.2027 48.0096 47.1278C48.0096 40.053 54.1281 34.6278 61.2788 34.6278H69.954C69.9725 34.6278 69.9909 34.6278 70.0093 34.6278Z" fill="white"/>
<path d="M63.8429 47.1278C63.8429 48.9688 62.3506 50.4612 60.5096 50.4612C58.6687 50.4612 57.1763 48.9688 57.1763 47.1278C57.1763 45.2869 58.6687 43.7945 60.5096 43.7945C62.3506 43.7945 63.8429 45.2869 63.8429 47.1278Z" fill="white"/>
<path fill-rule="evenodd" clip-rule="evenodd" d="M70.0093 34.6278C70.2305 34.6278 70.4438 34.6277 70.6398 34.6396C71.3913 34.6853 72.1203 34.8659 72.7919 35.1614C72.4353 29.8066 71.4534 25.6799 68.3721 22.5987C65.8776 20.1041 62.7144 18.9971 58.8063 18.4716L58.6654 18.453C58.6304 18.4271 58.5945 18.4019 58.5578 18.3776L46.1062 10.1214C41.7623 7.24112 35.9235 7.24112 31.5797 10.1214L19.1281 18.3776C19.0914 18.4019 19.0555 18.4271 19.0205 18.453L18.8795 18.4716C14.9715 18.9971 11.8083 20.1041 9.31375 22.5987C6.8192 25.0932 5.71215 28.2564 5.18672 32.1644C4.67618 35.9618 4.67622 40.8139 4.67627 46.9398V47.3159C4.67622 53.4418 4.67618 58.2939 5.18672 62.0913C5.71215 65.9993 6.8192 69.1625 9.31375 71.657C11.8083 74.1516 14.9715 75.2586 18.8795 75.7841C22.6769 76.2946 27.529 76.2946 33.6549 76.2945H44.031C50.1568 76.2946 55.009 76.2946 58.8063 75.7841C62.7144 75.2586 65.8776 74.1516 68.3721 71.657C71.4534 68.5758 72.4353 64.4491 72.7919 59.0943C72.1203 59.3898 71.3913 59.5704 70.6398 59.6161C70.4438 59.628 70.2305 59.6279 70.0092 59.6279L69.954 59.6278H67.736C67.3566 64.0994 66.4984 66.4597 64.8366 68.1215C63.4259 69.5322 61.4937 70.3778 58.1401 70.8287C54.7146 71.2892 50.199 71.2945 43.8429 71.2945H33.8429C27.4869 71.2945 22.9713 71.2892 19.5458 70.8287C16.1921 70.3778 14.26 69.5322 12.8493 68.1215C11.4386 66.7108 10.593 64.7787 10.1421 61.425C9.68158 57.9995 9.67627 53.4839 9.67627 47.1279C9.67627 40.7718 9.68158 36.2562 10.1421 32.8307C10.593 29.477 11.4386 27.5449 12.8493 26.1342C14.26 24.7235 16.1921 23.8779 19.5458 23.427C22.9713 22.9665 27.4869 22.9612 33.8429 22.9612H43.8429C50.199 22.9612 54.7146 22.9665 58.1401 23.427C61.4937 23.8779 63.4259 24.7235 64.8366 26.1342C66.4984 27.796 67.3566 30.1563 67.736 34.6278H69.954L70.0093 34.6278ZM33.6549 17.9612H44.031C45.7527 17.9612 47.3737 17.9612 48.899 17.9725L43.3431 14.2885C40.674 12.5187 37.0119 12.5187 34.3428 14.2885L28.7869 17.9725C30.3122 17.9612 31.9332 17.9612 33.6549 17.9612Z" fill="white"/>
<path d="M20.5096 31.2945C19.1289 31.2945 18.0096 32.4138 18.0096 33.7945C18.0096 35.1752 19.1289 36.2945 20.5096 36.2945H33.8429C35.2236 36.2945 36.3429 35.1752 36.3429 33.7945C36.3429 32.4138 35.2236 31.2945 33.8429 31.2945H20.5096Z" fill="white"/>
<path fill-rule="evenodd" clip-rule="evenodd" d="M63.8429 47.1278C63.8429 48.9688 62.3506 50.4612 60.5096 50.4612C58.6687 50.4612 57.1763 48.9688 57.1763 47.1278C57.1763 45.2869 58.6687 43.7945 60.5096 43.7945C62.3506 43.7945 63.8429 45.2869 63.8429 47.1278Z" fill="white"/>
<path d="M69.954 54.6278L69.954 54.5279L69.954 54.7279V54.6278ZM70.3361 54.6253L70.3427 54.7251L70.3325 54.5254L70.3361 54.6253ZM71.3422 40.4659L71.4422 40.4653L71.4421 40.4639L71.3422 40.4659ZM58.793 18.5707C58.8478 18.5781 58.8981 18.5397 58.9055 18.485C58.9128 18.4302 58.8744 18.3799 58.8197 18.3725L58.8063 18.4716L58.793 18.5707ZM72.8321 35.0699C72.7816 35.0477 72.7226 35.0706 72.7003 35.1212C72.6781 35.1717 72.701 35.2307 72.7516 35.253L72.7919 35.1614L72.8321 35.0699ZM72.7516 59.0028C72.701 59.025 72.6781 59.084 72.7003 59.1346C72.7226 59.1851 72.7816 59.2081 72.8321 59.1858L72.7919 59.0943L72.7516 59.0028ZM18.8662 18.3725C18.8115 18.3799 18.7731 18.4302 18.7804 18.485C18.7878 18.5397 18.8381 18.5781 18.8929 18.5707L18.8795 18.4716L18.8662 18.3725ZM67.736 59.7279C67.7912 59.7279 67.836 59.6831 67.836 59.6278C67.836 59.5726 67.7912 59.5279 67.736 59.5279V59.6278V59.7279ZM67.736 34.7278C67.7912 34.7278 67.836 34.6831 67.836 34.6278C67.836 34.5726 67.7912 34.5278 67.736 34.5278V34.6278V34.7278ZM70.1644 54.6277L70.1647 54.7277H70.1647L70.1644 54.6277ZM70.3172 54.626L70.3199 54.726H70.3199L70.3172 54.626ZM58.6783 18.3538C58.6235 18.3467 58.5733 18.3853 58.5662 18.4401C58.5591 18.4948 58.5977 18.545 58.6524 18.5521L58.6654 18.453L58.6783 18.3538ZM19.0334 18.5521C19.0882 18.545 19.1268 18.4948 19.1197 18.4401C19.1125 18.3853 19.0624 18.3467 19.0076 18.3538L19.0205 18.453L19.0334 18.5521ZM71.3428 40.5602L71.4428 40.5601V40.5596L71.3428 40.5602ZM70.6398 34.6396L70.6459 34.5398C70.4463 34.5276 70.2298 34.5278 70.0092 34.5278L70.0093 34.6278L70.0093 34.7278C70.2313 34.7278 70.4414 34.7277 70.6338 34.7394L70.6398 34.6396ZM70.0092 59.6279L70.0092 59.7279C70.2298 59.7279 70.4463 59.7281 70.6459 59.7159L70.6398 59.6161L70.6338 59.5163C70.4414 59.528 70.2313 59.5279 70.0093 59.5279L70.0092 59.6279ZM63.8429 47.1278H63.7429C63.7429 48.9136 62.2953 50.3612 60.5096 50.3612V50.4612V50.5612C62.4058 50.5612 63.9429 49.024 63.9429 47.1278H63.8429ZM60.5096 50.4612V50.3612C58.7239 50.3612 57.2763 48.9136 57.2763 47.1278H57.1763H57.0763C57.0763 49.024 58.6134 50.5612 60.5096 50.5612V50.4612ZM57.1763 47.1278H57.2763C57.2763 45.3421 58.7239 43.8945 60.5096 43.8945V43.7945V43.6945C58.6134 43.6945 57.0763 45.2317 57.0763 47.1278H57.1763ZM60.5096 43.7945V43.8945C62.2953 43.8945 63.7429 45.3421 63.7429 47.1278H63.8429H63.9429C63.9429 45.2317 62.4058 43.6945 60.5096 43.6945V43.7945ZM76.329 40.0671L76.4288 40.0601C76.2658 37.7507 74.7863 35.9299 72.8321 35.0699L72.7919 35.1614L72.7516 35.253C74.6457 36.0865 76.0721 37.847 76.2293 40.0742L76.329 40.0671ZM72.7919 59.0943L72.8321 59.1858C74.7863 58.3259 76.2658 56.505 76.4288 54.1956L76.329 54.1885L76.2293 54.1815C76.0721 56.4087 74.6457 58.1692 72.7516 59.0028L72.7919 59.0943ZM61.2788 59.6278V59.7279H67.736V59.6278V59.5279H61.2788V59.6278ZM67.736 34.6278V34.5278H61.2788V34.6278V34.7278H67.736V34.6278ZM70.1644 54.6277L70.1641 54.5277C70.1096 54.5278 70.0423 54.5279 69.954 54.5279V54.6278V54.7279C70.0423 54.7279 70.1099 54.7278 70.1647 54.7277L70.1644 54.6277ZM70.2547 54.6271L70.2536 54.5271C70.2277 54.5274 70.1985 54.5276 70.1641 54.5277L70.1644 54.6277L70.1647 54.7277C70.1995 54.7276 70.2291 54.7274 70.2558 54.7271L70.2547 54.6271ZM70.3172 54.626L70.3144 54.5261C70.3025 54.5264 70.2832 54.5268 70.2536 54.5271L70.2547 54.6271L70.2557 54.7271C70.2862 54.7268 70.3067 54.7263 70.3199 54.726L70.3172 54.626ZM70.3361 54.6253C70.3295 54.5255 70.3296 54.5255 70.3296 54.5255H70.3296C70.3296 54.5255 70.3296 54.5255 70.3296 54.5255C70.3296 54.5255 70.3296 54.5255 70.3296 54.5255C70.3297 54.5255 70.3297 54.5255 70.3297 54.5255C70.3298 54.5255 70.3298 54.5255 70.3299 54.5255C70.33 54.5255 70.33 54.5255 70.3301 54.5255C70.3301 54.5255 70.3301 54.5255 70.33 54.5255C70.3297 54.5255 70.3291 54.5256 70.3279 54.5256C70.3256 54.5257 70.3213 54.5259 70.3144 54.5261L70.3172 54.626L70.3199 54.726C70.3276 54.7258 70.3328 54.7256 70.3363 54.7254C70.3381 54.7254 70.3394 54.7253 70.3404 54.7252C70.341 54.7252 70.3414 54.7252 70.3418 54.7252C70.342 54.7252 70.3421 54.7251 70.3423 54.7251C70.3424 54.7251 70.3424 54.7251 70.3425 54.7251C70.3426 54.7251 70.3426 54.7251 70.3426 54.7251C70.3426 54.7251 70.3427 54.7251 70.3427 54.7251C70.3427 54.7251 70.3427 54.7251 70.3427 54.7251C70.3427 54.7251 70.3427 54.7251 70.3427 54.7251C70.3427 54.7251 70.3427 54.7251 70.3361 54.6253ZM58.8063 18.4716L58.8197 18.3725C58.7727 18.3662 58.7256 18.36 58.6783 18.3538L58.6654 18.453L58.6524 18.5521C58.6995 18.5583 58.7463 18.5645 58.793 18.5707L58.8063 18.4716ZM19.0205 18.453L19.0076 18.3538C18.9603 18.36 18.9132 18.3662 18.8662 18.3725L18.8795 18.4716L18.8929 18.5707C18.9395 18.5645 18.9864 18.5583 19.0334 18.5521L19.0205 18.453ZM71.3411 40.4148L71.2411 40.4168L71.2422 40.468L71.3422 40.4659L71.4421 40.4639L71.4411 40.4127L71.3411 40.4148ZM71.3422 40.4659L71.2422 40.4666L71.2428 40.5609L71.3428 40.5602L71.4428 40.5596L71.4422 40.4653L71.3422 40.4659ZM71.3428 40.5602L71.2428 40.5603L71.2429 40.739L71.3429 40.739L71.4429 40.7389L71.4428 40.5601L71.3428 40.5602ZM71.3422 53.7898L71.2422 53.7877L71.2411 53.8389L71.3411 53.8409L71.4411 53.843L71.4421 53.7918L71.3422 53.7898ZM70.3361 54.6253L70.3325 54.5254L70.3135 54.5261L70.3172 54.626L70.3208 54.726L70.3398 54.7253L70.3361 54.6253ZM70.3172 54.626L70.3154 54.526L70.253 54.5271L70.2547 54.6271L70.2564 54.7271L70.3189 54.726L70.3172 54.626ZM70.2547 54.6271L70.2541 54.5271L70.1638 54.5277L70.1644 54.6277L70.165 54.7277L70.2553 54.7271L70.2547 54.6271ZM70.1644 54.6277L70.1643 54.5277L69.954 54.5279L69.954 54.6278L69.9541 54.7279L70.1645 54.7277L70.1644 54.6277ZM70.2547 39.6286L70.2568 39.4286L70.2547 39.6286ZM70.2547 54.6271L70.2526 54.4271L70.2547 54.6271ZM70.3361 54.6253L70.324 54.4257L70.3237 54.4257L70.3361 54.6253ZM71.3411 53.8409L71.5407 53.857L71.541 53.8474L71.3411 53.8409ZM71.3422 53.7898L71.1422 53.7873L71.3422 53.7898ZM71.3422 40.4659L71.5422 40.4635L71.3422 40.4659ZM71.3411 40.4148L71.5413 40.4084L71.5405 40.3987L71.3411 40.4148ZM70.3361 39.6304L70.323 39.8299L70.3239 39.83L70.3361 39.6304ZM70.0093 34.6278L70.0093 34.8278L70.0092 34.4278L70.0093 34.6278ZM76.329 40.0671L76.1295 40.0812L76.329 40.0671ZM76.343 40.6845L76.543 40.6847V40.6847L76.343 40.6845ZM76.343 53.5711L76.543 53.571L76.343 53.5711ZM76.329 54.1885L76.1295 54.1745L76.329 54.1885ZM70.0092 59.6279L70.0092 59.8279L70.0093 59.4279L70.0092 59.6279ZM33.6549 17.9612L33.6549 18.1612H33.6549V17.9612ZM44.031 17.9612V18.1612V17.9612ZM58.8063 18.4716L58.833 18.2734L58.8326 18.2734L58.8063 18.4716ZM68.3721 22.5987L68.5135 22.4572L68.3721 22.5987ZM72.7919 35.1614L72.7113 35.3445L73.0133 35.4774L72.9914 35.1481L72.7919 35.1614ZM72.7919 59.0943L72.9914 59.1076L73.0133 58.7783L72.7113 58.9112L72.7919 59.0943ZM68.3721 71.657L68.5136 71.7985L68.3721 71.657ZM58.8063 75.7841L58.7797 75.5858L58.8063 75.7841ZM44.031 76.2945V76.0945V76.2945ZM33.6549 76.2945V76.0945H33.6549L33.6549 76.2945ZM18.8795 75.7841L18.9062 75.5858L18.8795 75.7841ZM9.31375 71.657L9.17233 71.7985L9.31375 71.657ZM5.18672 62.0913L4.9885 62.1179L5.18672 62.0913ZM4.67627 47.3159L4.87627 47.3159V47.3159H4.67627ZM4.67627 46.9398H4.87627V46.9398L4.67627 46.9398ZM5.18672 32.1644L5.38494 32.1911L5.18672 32.1644ZM9.31375 22.5987L9.17233 22.4572L9.31375 22.5987ZM18.8795 18.4716L18.8533 18.2734L18.8529 18.2734L18.8795 18.4716ZM67.736 59.6278V59.4279H67.5522L67.5367 59.6109L67.736 59.6278ZM67.736 34.6278L67.5367 34.6448L67.5522 34.8278H67.736V34.6278ZM64.8366 26.1342L64.6952 26.2756L64.8366 26.1342ZM58.1401 23.427L58.1668 23.2288L58.1401 23.427ZM19.5458 23.427L19.5724 23.6253L19.5458 23.427ZM12.8493 26.1342L12.7079 25.9928L12.8493 26.1342ZM10.1421 32.8307L9.94392 32.804L10.1421 32.8307ZM10.1421 61.425L9.94392 61.4517L10.1421 61.425ZM12.8493 68.1215L12.9907 67.9801L12.8493 68.1215ZM19.5458 70.8287L19.5724 70.6304V70.6304L19.5458 70.8287ZM58.1401 70.8287L58.1135 70.6304L58.1401 70.8287ZM64.8366 68.1215L64.978 68.2629L64.8366 68.1215ZM34.3428 14.2885L34.2322 14.1219L34.3428 14.2885ZM43.3431 14.2885L43.2326 14.4552L43.3431 14.2885ZM19.1281 18.3776L19.2386 18.5443L19.1281 18.3776ZM31.5797 10.1214L31.4691 9.95469L31.5797 10.1214ZM46.1062 10.1214L45.9957 10.2881L46.1062 10.1214ZM58.5578 18.3776L58.4473 18.5443L58.5578 18.3776ZM58.6654 18.453L58.5464 18.6137L58.5879 18.6445L58.6391 18.6512L58.6654 18.453ZM48.899 17.9725L48.8975 18.1725L49.5701 18.1775L49.0095 17.8058L48.899 17.9725ZM28.7869 17.9725L28.6763 17.8058L28.1158 18.1775L28.7883 18.1725L28.7869 17.9725ZM19.0205 18.453L19.0468 18.6512L19.098 18.6445L19.1395 18.6137L19.0205 18.453ZM71.3428 40.5602L71.5428 40.5596L71.3428 40.5602ZM69.954 39.6278V39.8279C70.0986 39.8279 70.1861 39.8279 70.2526 39.8286L70.2547 39.6286L70.2568 39.4286C70.1877 39.4279 70.0977 39.4279 69.954 39.4279V39.6278ZM61.2788 39.6278V39.8279H69.954V39.6278V39.4279H61.2788V39.6278ZM53.0096 47.1278H53.2096C53.2096 43.2798 56.6318 39.8279 61.2788 39.8279V39.6278V39.4279C56.4365 39.4279 52.8096 43.0341 52.8096 47.1278H53.0096ZM61.2788 54.6278V54.4278C56.6318 54.4278 53.2096 50.9759 53.2096 47.1278H53.0096H52.8096C52.8096 51.2216 56.4365 54.8279 61.2788 54.8279V54.6278ZM69.954 54.6278V54.4278H61.2788V54.6278V54.8279H69.954V54.6278ZM70.2547 54.6271L70.2526 54.4271C70.1861 54.4278 70.0986 54.4278 69.954 54.4278V54.6278V54.8279C70.0977 54.8279 70.1877 54.8278 70.2568 54.8271L70.2547 54.6271ZM70.3361 54.6253C70.3237 54.4257 70.3237 54.4257 70.3237 54.4257C70.3237 54.4257 70.3238 54.4257 70.3238 54.4257C70.3238 54.4257 70.3238 54.4257 70.3238 54.4257C70.3239 54.4257 70.3239 54.4257 70.324 54.4257C70.3241 54.4257 70.3241 54.4257 70.3242 54.4257C70.3244 54.4257 70.3245 54.4257 70.3246 54.4257C70.3248 54.4256 70.3249 54.4256 70.3249 54.4256C70.325 54.4256 70.3246 54.4257 70.3238 54.4257C70.3223 54.4258 70.319 54.4259 70.3136 54.426C70.3027 54.4264 70.2836 54.4268 70.2526 54.4271L70.2547 54.6271L70.2568 54.8271C70.2896 54.8267 70.3113 54.8263 70.3252 54.8259C70.3321 54.8257 70.3372 54.8255 70.3409 54.8253C70.3428 54.8252 70.3443 54.8252 70.3456 54.8251C70.3462 54.8251 70.3468 54.825 70.3473 54.825C70.3475 54.825 70.3477 54.825 70.348 54.825C70.3481 54.825 70.3482 54.825 70.3483 54.825C70.3483 54.825 70.3484 54.825 70.3484 54.8249C70.3485 54.8249 70.3485 54.8249 70.3485 54.8249C70.3485 54.8249 70.3485 54.8249 70.3485 54.8249C70.3486 54.8249 70.3486 54.8249 70.3361 54.6253ZM71.3411 53.8409L71.1418 53.8249C71.1276 54.0007 70.9154 54.3897 70.324 54.4257L70.3361 54.6253L70.3483 54.825C71.1308 54.7773 71.5097 54.239 71.5405 53.857L71.3411 53.8409ZM71.3422 53.7898L71.1422 53.7873C71.142 53.8015 71.1418 53.8136 71.1416 53.8219C71.1415 53.8261 71.1414 53.8294 71.1413 53.8316C71.1413 53.8326 71.1413 53.8334 71.1412 53.8339C71.1412 53.8342 71.1412 53.8344 71.1412 53.8345C71.1412 53.8345 71.1412 53.8345 71.1412 53.8346C71.1412 53.8346 71.1412 53.8346 71.1412 53.8346C71.1412 53.8346 71.1412 53.8346 71.1412 53.8345C71.1412 53.8345 71.1412 53.8345 71.1412 53.8345C71.1412 53.8345 71.1412 53.8345 71.1412 53.8345C71.1412 53.8345 71.1412 53.8345 71.3411 53.8409C71.541 53.8474 71.541 53.8474 71.541 53.8473C71.541 53.8473 71.541 53.8473 71.541 53.8473C71.541 53.8473 71.541 53.8473 71.541 53.8473C71.541 53.8473 71.541 53.8473 71.541 53.8473C71.541 53.8473 71.541 53.8472 71.541 53.8472C71.541 53.8471 71.541 53.847 71.541 53.8469C71.541 53.8467 71.541 53.8464 71.5411 53.846C71.5411 53.8453 71.5411 53.8442 71.5412 53.8428C71.5412 53.8401 71.5413 53.8363 71.5415 53.8315C71.5417 53.8218 71.542 53.8083 71.5422 53.7922L71.3422 53.7898ZM71.3429 53.5167H71.1429C71.1429 53.6523 71.1429 53.7297 71.1422 53.7873L71.3422 53.7898L71.5422 53.7922C71.5429 53.7316 71.5429 53.6512 71.5429 53.5167H71.3429ZM71.3429 40.739H71.1429V53.5167H71.3429H71.5429V40.739H71.3429ZM71.3411 40.4148C71.1412 40.4212 71.1412 40.4212 71.1412 40.4212C71.1412 40.4212 71.1412 40.4212 71.1412 40.4212C71.1412 40.4212 71.1412 40.4212 71.1412 40.4212C71.1412 40.4212 71.1412 40.4212 71.1412 40.4212C71.1412 40.4212 71.1412 40.4212 71.1412 40.4212C71.1412 40.4212 71.1412 40.4212 71.1412 40.4212C71.1412 40.4213 71.1412 40.4215 71.1412 40.4218C71.1413 40.4223 71.1413 40.4231 71.1413 40.4242C71.1414 40.4263 71.1415 40.4296 71.1416 40.4338C71.1418 40.4422 71.142 40.4542 71.1422 40.4684L71.3422 40.4659L71.5422 40.4635C71.542 40.4475 71.5417 40.4339 71.5415 40.4243C71.5413 40.4194 71.5412 40.4156 71.5412 40.4129C71.5411 40.4115 71.5411 40.4105 71.5411 40.4097C71.541 40.4093 71.541 40.409 71.541 40.4088C71.541 40.4087 71.541 40.4086 71.541 40.4085C71.541 40.4085 71.541 40.4085 71.541 40.4084C71.541 40.4084 71.541 40.4084 71.541 40.4084C71.541 40.4084 71.541 40.4084 71.541 40.4084C71.541 40.4084 71.541 40.4084 71.541 40.4084C71.541 40.4084 71.541 40.4084 71.3411 40.4148ZM70.3361 39.6304L70.3239 39.83C70.9154 39.866 71.1276 40.255 71.1418 40.4308L71.3411 40.4148L71.5405 40.3987C71.5097 40.0168 71.1308 39.4784 70.3482 39.4307L70.3361 39.6304ZM70.2547 39.6286L70.2526 39.8286C70.2842 39.8289 70.3032 39.8293 70.3139 39.8297C70.3193 39.8298 70.3223 39.8299 70.3238 39.83C70.3245 39.83 70.3247 39.83 70.3246 39.83C70.3245 39.83 70.3244 39.83 70.3241 39.83C70.324 39.83 70.3238 39.83 70.3236 39.83C70.3236 39.83 70.3235 39.83 70.3234 39.83C70.3233 39.83 70.3233 39.83 70.3232 39.83C70.3232 39.83 70.3232 39.8299 70.3231 39.8299C70.3231 39.8299 70.3231 39.8299 70.3231 39.8299C70.3231 39.8299 70.323 39.8299 70.3361 39.6304C70.3492 39.4308 70.3491 39.4308 70.3491 39.4308C70.3491 39.4308 70.3491 39.4308 70.3491 39.4308C70.349 39.4308 70.349 39.4308 70.349 39.4308C70.3489 39.4308 70.3489 39.4308 70.3488 39.4308C70.3487 39.4308 70.3486 39.4308 70.3484 39.4307C70.3482 39.4307 70.348 39.4307 70.3477 39.4307C70.3472 39.4307 70.3466 39.4306 70.3459 39.4306C70.3446 39.4305 70.3431 39.4305 70.3412 39.4304C70.3375 39.4302 70.3325 39.43 70.3255 39.4298C70.3118 39.4294 70.2901 39.429 70.2568 39.4286L70.2547 39.6286ZM76.329 40.0671L76.5285 40.0531C76.3046 36.8807 73.6439 34.6221 70.652 34.44L70.6398 34.6396L70.6277 34.8392C73.4449 35.0107 75.9215 37.1336 76.1295 40.0812L76.329 40.0671ZM76.343 40.6845L76.543 40.6847C76.5431 40.4857 76.5433 40.2621 76.5285 40.0531L76.329 40.0671L76.1295 40.0812C76.1431 40.2735 76.1431 40.4825 76.143 40.6844L76.343 40.6845ZM76.3429 40.739H76.5429C76.5429 40.7211 76.5429 40.703 76.543 40.6847L76.343 40.6845L76.143 40.6844C76.143 40.7027 76.1429 40.7209 76.1429 40.739H76.3429ZM76.3429 53.5167H76.5429V40.739H76.3429H76.1429V53.5167H76.3429ZM76.343 53.5711L76.543 53.571C76.5429 53.5527 76.5429 53.5346 76.5429 53.5167H76.3429H76.1429C76.1429 53.5348 76.143 53.553 76.143 53.5713L76.343 53.5711ZM76.329 54.1885L76.5285 54.2026C76.5433 53.9936 76.5431 53.77 76.543 53.571L76.343 53.5711L76.143 53.5713C76.1431 53.7732 76.1431 53.9822 76.1295 54.1745L76.329 54.1885ZM70.6398 59.6161L70.652 59.8157C73.6439 59.6336 76.3046 57.375 76.5285 54.2026L76.329 54.1885L76.1295 54.1745C75.9215 57.1221 73.4449 59.245 70.6277 59.4165L70.6398 59.6161ZM69.954 59.6278V59.8279C69.9725 59.8279 69.9908 59.8279 70.0092 59.8279L70.0092 59.6279L70.0093 59.4279C69.991 59.4279 69.9725 59.4279 69.954 59.4279V59.6278ZM61.2788 59.6278V59.8279H69.954V59.6278V59.4279H61.2788V59.6278ZM48.0096 47.1278H47.8096C47.8096 54.3276 54.0327 59.8279 61.2788 59.8279V59.6278V59.4279C54.2235 59.4279 48.2096 54.0777 48.2096 47.1278H48.0096ZM61.2788 34.6278V34.4278C54.0327 34.4278 47.8096 39.9281 47.8096 47.1278H48.0096H48.2096C48.2096 40.178 54.2235 34.8278 61.2788 34.8278V34.6278ZM69.954 34.6278V34.4278H61.2788V34.6278V34.8278H69.954V34.6278ZM70.0093 34.6278L70.0092 34.4278C69.9908 34.4278 69.9725 34.4278 69.954 34.4278V34.6278V34.8278C69.9725 34.8278 69.991 34.8278 70.0093 34.8278L70.0093 34.6278ZM20.5096 31.2945V31.0945C19.0184 31.0945 17.8096 32.3033 17.8096 33.7945H18.0096H18.2096C18.2096 32.5243 19.2393 31.4945 20.5096 31.4945V31.2945ZM33.8429 31.2945V31.0945H20.5096V31.2945V31.4945H33.8429V31.2945ZM36.3429 33.7945H36.5429C36.5429 32.3033 35.3341 31.0945 33.8429 31.0945V31.2945V31.4945C35.1132 31.4945 36.1429 32.5243 36.1429 33.7945H36.3429ZM33.8429 36.2945V36.4945C35.3341 36.4945 36.5429 35.2857 36.5429 33.7945H36.3429H36.1429C36.1429 35.0648 35.1132 36.0945 33.8429 36.0945V36.2945ZM20.5096 36.2945V36.4945H33.8429V36.2945V36.0945H20.5096V36.2945ZM18.0096 33.7945H17.8096C17.8096 35.2857 19.0184 36.4945 20.5096 36.4945V36.2945V36.0945C19.2393 36.0945 18.2096 35.0648 18.2096 33.7945H18.0096ZM68.3721 22.5987L68.5135 22.4572C65.9756 19.9193 62.7632 18.8018 58.833 18.2734L58.8063 18.4716L58.7797 18.6698C62.6657 19.1923 65.7795 20.2889 68.2307 22.7401L68.3721 22.5987ZM72.7919 35.1614L72.9914 35.1481C72.6341 29.7818 71.6484 25.5921 68.5135 22.4572L68.3721 22.5987L68.2307 22.7401C71.2584 25.7678 72.2365 29.8314 72.5923 35.1747L72.7919 35.1614ZM68.3721 71.657L68.5136 71.7985C71.6484 68.6636 72.6341 64.4739 72.9914 59.1076L72.7919 59.0943L72.5923 59.081C72.2365 64.4243 71.2585 68.4879 68.2307 71.5156L68.3721 71.657ZM58.8063 75.7841L58.833 75.9823C62.7632 75.4539 65.9756 74.3364 68.5136 71.7985L68.3721 71.657L68.2307 71.5156C65.7795 73.9668 62.6657 75.0634 58.7797 75.5858L58.8063 75.7841ZM44.031 76.2945L44.031 76.4945C50.1515 76.4946 55.0193 76.495 58.833 75.9823L58.8063 75.7841L58.7797 75.5858C54.9987 76.0942 50.1622 76.0946 44.031 76.0945V76.2945ZM18.8795 75.7841L18.8529 75.9823C22.6666 76.495 27.5344 76.4946 33.6549 76.4945L33.6549 76.2945L33.6549 76.0945C27.5237 76.0946 22.6872 76.0942 18.9062 75.5858L18.8795 75.7841ZM9.31375 71.657L9.17233 71.7985C11.7103 74.3364 14.9227 75.4539 18.8529 75.9823L18.8795 75.7841L18.9062 75.5858C15.0202 75.0634 11.9063 73.9668 9.45517 71.5156L9.31375 71.657ZM5.18672 62.0913L4.9885 62.1179C5.5169 66.0481 6.6344 69.2605 9.17233 71.7985L9.31375 71.657L9.45517 71.5156C7.00401 69.0645 5.90739 65.9506 5.38494 62.0646L5.18672 62.0913ZM4.67627 47.3159H4.47627C4.47622 53.4365 4.47576 58.3042 4.9885 62.1179L5.18672 62.0913L5.38494 62.0646C4.87659 58.2836 4.87622 53.4471 4.87627 47.3159L4.67627 47.3159ZM5.18672 32.1644L4.9885 32.1378C4.47576 35.9515 4.47622 40.8193 4.47627 46.9398H4.67627L4.87627 46.9398C4.87622 40.8086 4.87659 35.9721 5.38494 32.1911L5.18672 32.1644ZM9.31375 22.5987L9.17233 22.4572C6.6344 24.9952 5.5169 28.2076 4.9885 32.1378L5.18672 32.1644L5.38494 32.1911C5.90739 28.3051 7.00401 25.1912 9.45517 22.7401L9.31375 22.5987ZM18.8795 18.4716L18.8529 18.2734C14.9227 18.8018 11.7103 19.9193 9.17233 22.4572L9.31375 22.5987L9.45517 22.7401C11.9063 20.2889 15.0202 19.1923 18.9062 18.6698L18.8795 18.4716ZM64.8366 26.1342L64.6952 26.2756C66.306 27.8865 67.1585 30.1875 67.5367 34.6448L67.736 34.6278L67.9353 34.6109C67.5546 30.1251 66.6907 27.7055 64.978 25.9928L64.8366 26.1342ZM58.1401 23.427L58.1135 23.6253C61.4448 24.0731 63.3278 24.9082 64.6952 26.2756L64.8366 26.1342L64.978 25.9928C63.524 24.5388 61.5427 23.6827 58.1668 23.2288L58.1401 23.427ZM43.8429 22.9612V23.1612C50.2047 23.1612 54.7044 23.1669 58.1135 23.6253L58.1401 23.427L58.1668 23.2288C54.7248 22.7661 50.1933 22.7612 43.8429 22.7612V22.9612ZM33.8429 22.9612V23.1612H43.8429V22.9612V22.7612H33.8429V22.9612ZM19.5458 23.427L19.5724 23.6253C22.9815 23.1669 27.4811 23.1612 33.8429 23.1612V22.9612V22.7612C27.4926 22.7612 22.9611 22.7661 19.5191 23.2288L19.5458 23.427ZM12.8493 26.1342L12.9907 26.2756C14.3581 24.9082 16.2411 24.0732 19.5724 23.6253L19.5458 23.427L19.5191 23.2288C16.1432 23.6827 14.1619 24.5388 12.7079 25.9928L12.8493 26.1342ZM10.1421 32.8307L10.3404 32.8573C10.7882 29.526 11.6233 27.643 12.9907 26.2756L12.8493 26.1342L12.7079 25.9928C11.2539 27.4468 10.3978 29.4281 9.94392 32.804L10.1421 32.8307ZM9.67627 47.1279H9.87627C9.87627 40.766 9.88201 36.2664 10.3404 32.8573L10.1421 32.8307L9.94392 32.804C9.48115 36.246 9.47627 40.7775 9.47627 47.1279H9.67627ZM10.1421 61.425L10.3404 61.3984C9.88201 57.9893 9.87627 53.4897 9.87627 47.1279H9.67627H9.47627C9.47627 53.4782 9.48115 58.0097 9.94392 61.4517L10.1421 61.425ZM12.8493 68.1215L12.9907 67.9801C11.6233 66.6127 10.7882 64.7297 10.3404 61.3984L10.1421 61.425L9.94392 61.4517C10.3978 64.8276 11.2539 66.8089 12.7079 68.2629L12.8493 68.1215ZM19.5458 70.8287L19.5724 70.6304C16.2411 70.1826 14.3581 69.3475 12.9907 67.9801L12.8493 68.1215L12.7079 68.2629C14.1619 69.7169 16.1432 70.573 19.5191 71.0269L19.5458 70.8287ZM33.8429 71.2945V71.0945C27.4811 71.0945 22.9815 71.0888 19.5724 70.6304L19.5458 70.8287L19.5191 71.0269C22.9611 71.4896 27.4926 71.4945 33.8429 71.4945V71.2945ZM43.8429 71.2945V71.0945H33.8429V71.2945V71.4945H43.8429V71.2945ZM58.1401 70.8287L58.1135 70.6304C54.7044 71.0888 50.2047 71.0945 43.8429 71.0945V71.2945V71.4945C50.1933 71.4945 54.7248 71.4896 58.1668 71.0269L58.1401 70.8287ZM64.8366 68.1215L64.6952 67.9801C63.3278 69.3475 61.4448 70.1825 58.1135 70.6304L58.1401 70.8287L58.1668 71.0269C61.5427 70.573 63.524 69.7169 64.978 68.2629L64.8366 68.1215ZM67.736 59.6278L67.5367 59.6109C67.1585 64.0682 66.306 66.3692 64.6952 67.9801L64.8366 68.1215L64.978 68.2629C66.6907 66.5502 67.5546 64.1306 67.9353 59.6448L67.736 59.6278ZM44.031 17.9612V17.7612H33.6549V17.9612V18.1612H44.031V17.9612ZM33.6549 76.2945V76.4945H44.031V76.2945V76.0945H33.6549V76.2945ZM4.67627 46.9398H4.47627V47.3159H4.67627H4.87627V46.9398H4.67627ZM34.3428 14.2885L34.4533 14.4552C37.0555 12.7298 40.6304 12.7298 43.2326 14.4552L43.3431 14.2885L43.4536 14.1219C40.7175 12.3076 36.9684 12.3076 34.2322 14.1219L34.3428 14.2885ZM31.5797 10.1214L31.4691 9.95469L19.0175 18.2109L19.1281 18.3776L19.2386 18.5443L31.6902 10.2881L31.5797 10.1214ZM46.1062 10.1214L46.2167 9.95469C41.8059 7.03001 35.88 7.03001 31.4691 9.95469L31.5797 10.1214L31.6902 10.2881C35.9671 7.45222 41.7188 7.45222 45.9957 10.2881L46.1062 10.1214ZM58.5578 18.3776L58.6683 18.2109L46.2167 9.95469L46.1062 10.1214L45.9957 10.2881L58.4473 18.5443L58.5578 18.3776ZM58.6654 18.453L58.7843 18.2922C58.7466 18.2643 58.7079 18.2372 58.6683 18.2109L58.5578 18.3776L58.4473 18.5443C58.4811 18.5667 58.5141 18.5899 58.5464 18.6137L58.6654 18.453ZM48.899 17.9725L48.9005 17.7725C47.3743 17.7611 45.7525 17.7612 44.031 17.7612L44.031 17.9612V18.1612C45.7528 18.1612 47.3731 18.1612 48.8975 18.1725L48.899 17.9725ZM43.3431 14.2885L43.2326 14.4552L48.7885 18.1392L48.899 17.9725L49.0095 17.8058L43.4536 14.1219L43.3431 14.2885ZM28.7869 17.9725L28.8974 18.1392L34.4533 14.4552L34.3428 14.2885L34.2322 14.1219L28.6763 17.8058L28.7869 17.9725ZM33.6549 17.9612L33.6549 17.7612C31.9334 17.7612 30.3116 17.7611 28.7854 17.7725L28.7869 17.9725L28.7883 18.1725C30.3128 18.1612 31.933 18.1612 33.6549 18.1612L33.6549 17.9612ZM19.1281 18.3776L19.0175 18.2109C18.978 18.2372 18.9393 18.2643 18.9015 18.2922L19.0205 18.453L19.1395 18.6137C19.1717 18.5899 19.2048 18.5667 19.2386 18.5443L19.1281 18.3776ZM70.6398 34.6396L70.6277 34.8392C71.3552 34.8835 72.061 35.0583 72.7113 35.3445L72.7919 35.1614L72.8724 34.9784C72.1796 34.6735 71.4275 34.4872 70.652 34.44L70.6398 34.6396ZM58.8063 18.4716L58.8326 18.2734L58.6916 18.2547L58.6654 18.453L58.6391 18.6512L58.7801 18.6699L58.8063 18.4716ZM19.0205 18.453L18.9943 18.2547L18.8533 18.2734L18.8795 18.4716L18.9058 18.6699L19.0468 18.6512L19.0205 18.453ZM72.7919 59.0943L72.7113 58.9112C72.061 59.1974 71.3552 59.3722 70.6277 59.4165L70.6398 59.6161L70.652 59.8157C71.4275 59.7685 72.1796 59.5822 72.8724 59.2773L72.7919 59.0943ZM70.0092 59.6279L70.0093 59.4279L69.9541 59.4279L69.954 59.6278L69.954 59.8279L70.0092 59.8279L70.0092 59.6279ZM69.954 59.6278V59.4279H67.736V59.6278V59.8279H69.954V59.6278ZM67.736 34.6278V34.8278H69.954V34.6278V34.4278H67.736V34.6278ZM69.954 34.6278L69.9541 34.8278L70.0093 34.8278L70.0093 34.6278L70.0092 34.4278L69.954 34.4278L69.954 34.6278ZM71.3422 40.4659L71.1422 40.4684C71.1425 40.4939 71.1427 40.5236 71.1428 40.5608L71.3428 40.5602L71.5428 40.5596C71.5427 40.5218 71.5425 40.4908 71.5422 40.4635L71.3422 40.4659ZM71.3428 40.5602L71.1428 40.5608C71.1429 40.607 71.1429 40.6642 71.1429 40.739H71.3429H71.5429C71.5429 40.6643 71.5429 40.6065 71.5428 40.5596L71.3428 40.5602Z" fill="white" mask="url(#path-1-outside-1_4151_1702)"/>
</svg>
