<svg viewBox="0 0 30 21" fill="none" xmlns="http://www.w3.org/2000/svg">
<path d="M28.4256 3.62273C28.0992 2.39545 27.1334 1.42727 25.9048 1.09545C23.6831 0.5 14.7695 0.5 14.7695 0.5C14.7695 0.5 5.86045 0.5 3.63431 1.09545C2.41016 1.42273 1.44444 2.39091 1.11347 3.62273C0.519531 5.85 0.519531 10.5 0.519531 10.5C0.519531 10.5 0.519531 15.15 1.11347 17.3773C1.43991 18.6045 2.40563 19.5727 3.63431 19.9045C5.86045 20.5 14.7695 20.5 14.7695 20.5C14.7695 20.5 23.6831 20.5 25.9048 19.9045C27.1289 19.5773 28.0946 18.6091 28.4256 17.3773C29.0195 15.15 29.0195 10.5 29.0195 10.5C29.0195 10.5 29.0195 5.85 28.4256 3.62273Z" fill="white"/>
<path d="M11.9223 14.7864L19.3261 10.5L11.9223 6.21364V14.7864Z" fill="#2F2F2F"/>
</svg>
