<svg viewBox="0 0 80 45" fill="none" xmlns="http://www.w3.org/2000/svg">
<path d="M58.2029 33.5777C56.3696 33.5777 54.8816 32.0921 54.8816 30.2575C54.8816 28.423 56.3662 26.9341 58.1996 26.9341C60.033 26.9341 61.5209 28.4197 61.5209 30.2542C61.5209 32.0888 60.0363 33.5744 58.2029 33.5777ZM21.5156 33.5777C19.6822 33.5777 18.1942 32.0921 18.1942 30.2575C18.1942 28.423 19.6789 26.9341 21.5122 26.9341C23.3456 26.9341 24.8336 28.4197 24.8336 30.2542C24.8336 32.0888 23.3489 33.5744 21.5156 33.5777ZM59.392 13.5705L66.0247 2.07462C66.4066 1.41325 66.1807 0.569092 65.5198 0.186894C64.8589 -0.195304 64.0153 0.0306913 63.6333 0.69206L56.9176 12.3341C51.7828 9.98777 46.0137 8.68165 39.8592 8.68165C33.7048 8.68165 27.9357 9.98778 22.7976 12.3308L16.0819 0.69206C15.6999 0.0306913 14.8563 -0.195303 14.1953 0.183571C13.5377 0.565769 13.3086 1.40993 13.6905 2.07129L20.3232 13.5705C8.93105 19.7687 1.14254 31.3078 0 44.9439H79.7118C78.5726 31.3078 70.7841 19.7687 59.392 13.5705Z" fill="#0DCC61"/>
</svg>
