<svg viewBox="0 0 34 41" fill="none" xmlns="http://www.w3.org/2000/svg">
<path d="M27.6698 21.7389C27.7103 18.5833 29.3984 15.5974 32.0764 13.9445C30.3869 11.5223 27.5572 9.98657 24.6132 9.8941C21.4732 9.56322 18.429 11.7804 16.8289 11.7804C15.1978 11.7804 12.7342 9.92695 10.0813 9.98175C6.62337 10.0939 3.39969 12.0676 1.71732 15.1026C-1.8991 21.3883 0.798422 30.6262 4.26265 35.7071C5.99588 38.195 8.02153 40.9742 10.672 40.8756C13.2657 40.7676 14.2344 39.2152 17.3652 39.2152C20.467 39.2152 21.3758 40.8756 24.0801 40.8129C26.8633 40.7676 28.6168 38.3139 30.2892 35.8024C31.5345 34.0296 32.4928 32.0703 33.1285 29.9971C29.8578 28.6083 27.6736 25.3039 27.6698 21.7389Z" fill="white"/>
<path d="M22.5618 6.55265C24.0793 4.72385 24.8269 2.37324 24.6459 0C22.3275 0.244452 20.1859 1.35681 18.6479 3.11545C17.144 4.83373 16.3613 7.14298 16.5093 9.42551C18.8285 9.44948 21.1085 8.36728 22.5618 6.55265Z" fill="white"/>
</svg>
