<svg viewBox="0 0 48 54" fill="none" xmlns="http://www.w3.org/2000/svg">
<g filter="url(#filter0_ii_9554_6696)">
<path d="M0.961467 0.827477C0.357177 1.46957 -8.87219e-07 2.46606 -8.87219e-07 3.75649V49.8618C-8.87219e-07 51.1543 0.357177 52.1487 0.961467 52.7908L1.11513 52.9409L26.8421 27.1135V26.8091V26.5048L1.11513 0.675293L0.961467 0.827477Z" fill="url(#paint0_linear_9554_6696)"/>
<path d="M35.4161 35.725L26.8418 27.1131V26.8087V26.5044L35.4181 17.8945L35.6113 18.005L45.7721 23.8005C48.6731 25.4558 48.6731 28.1638 45.7721 29.8211L35.6113 35.6166L35.4161 35.725Z" fill="url(#paint1_linear_9554_6696)"/>
<g filter="url(#filter1_i_9554_6696)">
<path d="M35.6111 35.6149L26.8395 26.8091L0.960939 52.7908C1.91617 53.8081 3.49646 53.9332 5.27611 52.92L35.6111 35.6149Z" fill="url(#paint2_linear_9554_6696)"/>
</g>
<path d="M35.6111 18.0037L5.27611 0.700617C3.49646 -0.314633 1.91617 -0.187466 0.960939 0.82987L26.8416 26.8115L35.6111 18.0037Z" fill="url(#paint3_linear_9554_6696)"/>
</g>
<defs>
<filter id="filter0_ii_9554_6696" x="0" y="0" width="47.9482" height="53.6196" filterUnits="userSpaceOnUse" color-interpolation-filters="sRGB">
<feFlood flood-opacity="0" result="BackgroundImageFix"/>
<feBlend mode="normal" in="SourceGraphic" in2="BackgroundImageFix" result="shape"/>
<feColorMatrix in="SourceAlpha" type="matrix" values="0 0 0 0 0 0 0 0 0 0 0 0 0 0 0 0 0 0 127 0" result="hardAlpha"/>
<feOffset dy="-0.312706"/>
<feComposite in2="hardAlpha" operator="arithmetic" k2="-1" k3="1"/>
<feColorMatrix type="matrix" values="0 0 0 0 0 0 0 0 0 0 0 0 0 0 0 0 0 0 0.12 0"/>
<feBlend mode="normal" in2="shape" result="effect1_innerShadow_9554_6696"/>
<feColorMatrix in="SourceAlpha" type="matrix" values="0 0 0 0 0 0 0 0 0 0 0 0 0 0 0 0 0 0 127 0" result="hardAlpha"/>
<feOffset dy="0.312706"/>
<feComposite in2="hardAlpha" operator="arithmetic" k2="-1" k3="1"/>
<feColorMatrix type="matrix" values="0 0 0 0 1 0 0 0 0 1 0 0 0 0 1 0 0 0 0.25 0"/>
<feBlend mode="normal" in2="effect1_innerShadow_9554_6696" result="effect2_innerShadow_9554_6696"/>
</filter>
<filter id="filter1_i_9554_6696" x="0.960938" y="26.8091" width="34.6504" height="26.8105" filterUnits="userSpaceOnUse" color-interpolation-filters="sRGB">
<feFlood flood-opacity="0" result="BackgroundImageFix"/>
<feBlend mode="normal" in="SourceGraphic" in2="BackgroundImageFix" result="shape"/>
<feColorMatrix in="SourceAlpha" type="matrix" values="0 0 0 0 0 0 0 0 0 0 0 0 0 0 0 0 0 0 127 0" result="hardAlpha"/>
<feOffset dy="-0.312706"/>
<feComposite in2="hardAlpha" operator="arithmetic" k2="-1" k3="1"/>
<feColorMatrix type="matrix" values="0 0 0 0 0 0 0 0 0 0 0 0 0 0 0 0 0 0 0.08 0"/>
<feBlend mode="normal" in2="shape" result="effect1_innerShadow_9554_6696"/>
</filter>
<linearGradient id="paint0_linear_9554_6696" x1="24.5616" y1="3.26867" x2="-10.4236" y2="38.1179" gradientUnits="userSpaceOnUse">
<stop stop-color="#00A0FF"/>
<stop offset="0.0066" stop-color="#00A1FF"/>
<stop offset="0.2601" stop-color="#00BEFF"/>
<stop offset="0.5122" stop-color="#00D2FF"/>
<stop offset="0.7604" stop-color="#00DFFF"/>
<stop offset="1" stop-color="#00E3FF"/>
</linearGradient>
<linearGradient id="paint1_linear_9554_6696" x1="49.5484" y1="26.8087" x2="-0.696813" y2="26.8087" gradientUnits="userSpaceOnUse">
<stop stop-color="#FFE000"/>
<stop offset="0.4087" stop-color="#FFBD00"/>
<stop offset="0.7754" stop-color="#FFA500"/>
<stop offset="1" stop-color="#FF9C00"/>
</linearGradient>
<linearGradient id="paint2_linear_9554_6696" x1="30.8476" y1="31.5912" x2="-16.5968" y2="78.8511" gradientUnits="userSpaceOnUse">
<stop stop-color="#FF3A44"/>
<stop offset="1" stop-color="#C31162"/>
</linearGradient>
<linearGradient id="paint3_linear_9554_6696" x1="-5.55668" y1="-14.5181" x2="15.6286" y2="6.58472" gradientUnits="userSpaceOnUse">
<stop stop-color="#32A071"/>
<stop offset="0.0685" stop-color="#2DA771"/>
<stop offset="0.4762" stop-color="#15CF74"/>
<stop offset="0.8009" stop-color="#06E775"/>
<stop offset="1" stop-color="#00F076"/>
</linearGradient>
</defs>
</svg>
